<?xml version="1.0" standalone="no"?><!DOCTYPE svg PUBLIC "-//W3C//DTD SVG 1.1//EN" "http://www.w3.org/Graphics/SVG/1.1/DTD/svg11.dtd"><svg t="1748329434998" class="icon" viewBox="0 0 1065 1024" version="1.1" xmlns="http://www.w3.org/2000/svg" p-id="4371" xmlns:xlink="http://www.w3.org/1999/xlink" width="49.921875" height="48"><path d="M1030.844059 498.928032a113.178381 113.178381 0 0 0-62.894844-192.942194l-223.662039-32.525311a14.039509 14.039509 0 0 1-10.320791-7.599119l-99.812554-202.670145a113.178381 113.178381 0 0 0-202.966564 0l-99.974237 202.670145a12.880778 12.880778 0 0 1-10.32079 7.599119l-223.796776 32.552259a113.178381 113.178381 0 0 0-62.894843 192.942193l161.683402 157.695211a12.907725 12.907725 0 0 1 3.961243 12.153203l-38.292019 222.718886a113.178381 113.178381 0 0 0 164.378126 119.403193l199.948474-105.094212a13.473617 13.473617 0 0 1 12.772988 0l200.837733 104.824739a112.989751 112.989751 0 0 0 164.081706-119.106773l-38.292019-222.718886a12.907725 12.907725 0 0 1 3.961243-12.153202z m-495.586575 124.577061a210.404001 210.404001 0 0 1-111.83102-35.543401 134.736168 134.736168 0 0 1-65.939881-111.83102 36.459607 36.459607 0 1 1 72.919215 0c0 43.115574 62.598424 74.13184 104.528319 74.13184 35.866768 0 104.528319-28.860487 104.52832-74.13184a36.459607 36.459607 0 1 1 72.919214 0c0.350314 91.485858-102.96538 147.374421-177.124167 147.374421z" fill="#F37937" p-id="4372"></path></svg>